<?xml version="1.0" encoding="UTF-8"?>
<!DOCTYPE svg PUBLIC "-//W3C//DTD SVG 1.1//EN" "http://www.w3.org/Graphics/SVG/1.1/DTD/svg11.dtd">
<!-- Creator: CorelDRAW 2019 (64-Bit) -->
<svg xmlns="http://www.w3.org/2000/svg" xml:space="preserve" width="60mm" height="30mm" version="1.1" style="shape-rendering:geometricPrecision; text-rendering:geometricPrecision; image-rendering:optimizeQuality; fill-rule:evenodd; clip-rule:evenodd"
viewBox="0 0 5998.94 2999.47"
 xmlns:xlink="http://www.w3.org/1999/xlink"
 xmlns:xodm="http://www.corel.com/coreldraw/odm/2003">
 <defs>
  <style type="text/css">
   <![CDATA[
    .fil0 {fill:#FEFEFE}
    .fil2 {fill:#005740;fill-rule:nonzero}
    .fil1 {fill:#181512;fill-rule:nonzero}
    .fil3 {fill:#787878;fill-rule:nonzero}
   ]]>
  </style>
 </defs>
 <g id="Ebene_x0020_1">
  <metadata id="CorelCorpID_0Corel-Layer"/>
  <rect class="fil0" x="-0" y="-0" width="5998.94" height="2999.47"/>
  <g>
   <path class="fil1" d="M2092.12 1770.91l25.04 0 0 0 -0.91 36.09 -2.71 35.63 -4.46 35.12 -6.17 34.55 -7.84 33.95 -9.46 33.3 -11.04 32.6 -12.56 31.87 -14.06 31.07 -15.49 30.26 -16.91 29.38 -18.25 28.46 -19.57 27.52 -20.83 26.5 -22.06 25.46 -23.23 24.38 -24.38 23.23 -25.46 22.06 -26.51 20.83 -27.51 19.57 -28.47 18.25 -29.37 16.9 -30.25 15.49 -31.08 14.07 -31.88 12.56 -32.59 11.03 -33.3 9.46 -33.95 7.84 -34.55 6.17 -35.12 4.46 -35.62 2.71 -36.09 0.91 0 -25.04 34.83 -0.89 34.36 -2.61 33.86 -4.3 33.31 -5.95 32.73 -7.56 32.1 -9.12 31.43 -10.63 30.72 -12.12 29.96 -13.55 29.17 -14.95 28.33 -16.28 27.46 -17.61 26.53 -18.87 25.57 -20.09 24.56 -21.28 23.5 -22.41 22.41 -23.5 21.28 -24.56 20.09 -25.56 18.87 -26.54 17.61 -27.45 16.29 -28.34 14.95 -29.16 13.54 -29.97 12.12 -30.71 10.64 -31.44 9.12 -32.1 7.56 -32.73 5.95 -33.31 4.3 -33.86 2.61 -34.37 0.89 -34.83 0 0zm-676.64 -676.61l0 -25.04 0 0 36.09 0.91 35.62 2.71 35.12 4.46 34.55 6.17 33.95 7.84 33.3 9.46 32.59 11.03 31.88 12.56 31.08 14.07 30.25 15.49 29.37 16.9 28.47 18.25 27.51 19.57 26.51 20.83 25.46 22.05 24.38 23.23 23.23 24.38 22.06 25.46 20.83 26.51 19.57 27.51 18.25 28.47 16.91 29.37 15.49 30.26 14.06 31.07 12.56 31.87 11.04 32.6 9.46 33.29 7.84 33.95 6.17 34.55 4.46 35.12 2.71 35.62 0.91 36.09 -25.04 0 -0.89 -34.83 -2.61 -34.36 -4.3 -33.86 -5.95 -33.31 -7.56 -32.73 -9.12 -32.09 -10.64 -31.44 -12.12 -30.71 -13.54 -29.97 -14.95 -29.16 -16.29 -28.33 -17.61 -27.46 -18.87 -26.53 -20.09 -25.57 -21.28 -24.56 -22.41 -23.5 -23.5 -22.41 -24.56 -21.27 -25.57 -20.09 -26.53 -18.87 -27.46 -17.61 -28.33 -16.28 -29.17 -14.95 -29.96 -13.55 -30.72 -12.12 -31.43 -10.63 -32.1 -9.12 -32.73 -7.56 -33.31 -5.95 -33.86 -4.3 -34.36 -2.61 -34.83 -0.89 0 0zm-676.65 676.61l-25.04 0 0 0 0.91 -36.09 2.71 -35.62 4.46 -35.12 6.17 -34.55 7.84 -33.95 9.46 -33.29 11.04 -32.6 12.56 -31.87 14.06 -31.08 15.5 -30.25 16.9 -29.37 18.25 -28.47 19.57 -27.51 20.83 -26.51 22.06 -25.46 23.23 -24.38 24.38 -23.23 25.46 -22.05 26.51 -20.83 27.52 -19.57 28.46 -18.25 29.38 -16.9 30.25 -15.49 31.08 -14.07 31.87 -12.56 32.6 -11.03 33.3 -9.46 33.95 -7.84 34.55 -6.17 35.12 -4.46 35.62 -2.71 36.09 -0.91 0 25.04 -34.83 0.89 -34.36 2.61 -33.86 4.3 -33.31 5.95 -32.73 7.56 -32.1 9.12 -31.44 10.63 -30.71 12.12 -29.96 13.55 -29.17 14.95 -28.34 16.28 -27.45 17.61 -26.54 18.87 -25.57 20.09 -24.56 21.27 -23.5 22.41 -22.41 23.5 -21.28 24.56 -20.09 25.57 -18.87 26.53 -17.61 27.46 -16.28 28.33 -14.96 29.17 -13.54 29.96 -12.12 30.71 -10.64 31.44 -9.12 32.09 -7.56 32.73 -5.95 33.31 -4.3 33.86 -2.61 34.36 -0.89 34.83 0 0zm676.65 676.64l0 25.04 0 0 -36.09 -0.91 -35.62 -2.71 -35.12 -4.46 -34.55 -6.17 -33.95 -7.84 -33.3 -9.46 -32.6 -11.03 -31.87 -12.56 -31.08 -14.07 -30.25 -15.49 -29.38 -16.9 -28.46 -18.25 -27.52 -19.57 -26.51 -20.83 -25.46 -22.06 -24.38 -23.23 -23.23 -24.38 -22.06 -25.46 -20.83 -26.5 -19.57 -27.52 -18.25 -28.46 -16.9 -29.38 -15.5 -30.25 -14.06 -31.08 -12.56 -31.87 -11.04 -32.6 -9.46 -33.3 -7.84 -33.95 -6.17 -34.55 -4.46 -35.12 -2.71 -35.63 -0.91 -36.09 25.04 0 0.89 34.83 2.61 34.37 4.3 33.86 5.95 33.31 7.56 32.73 9.12 32.1 10.64 31.44 12.12 30.71 13.54 29.96 14.96 29.17 16.28 28.34 17.61 27.45 18.87 26.54 20.09 25.56 21.28 24.56 22.41 23.5 23.5 22.41 24.56 21.28 25.57 20.09 26.54 18.87 27.45 17.61 28.34 16.28 29.17 14.95 29.96 13.55 30.71 12.12 31.44 10.63 32.1 9.12 32.73 7.56 33.31 5.95 33.86 4.3 34.36 2.61 34.83 0.89 0 0z"/>
  </g>
  <path class="fil2" d="M2334.37 1770.89l0 -1225.15 -1837.76 0 0 1225.15 91.9 0c0,-456.73 370.23,-827 826.98,-827 456.73,0 826.96,370.27 826.96,827l91.9 0z"/>
  <path class="fil1" d="M2536.96 856.51l86.28 0 0 -111.61 55.8 -0.42c16.74,0 54.08,0 78.13,-13.31 12.02,-6.44 46.78,-30.04 46.78,-84.57 0,-40.35 -17.6,-68.25 -43.78,-84.13 -25.33,-15.89 -56.66,-15.89 -80.7,-15.89l-142.51 0 0 309.92zm86.28 -252.4l37.77 0c24.9,0 55.37,2.14 55.37,39.91 0,41.64 -33.91,41.64 -54.94,41.64l-38.2 0 0 -81.56z"/>
  <path class="fil3" d="M2836.59 856.51l44.21 0 33.48 -80.7 143.79 0 33.48 80.7 46.78 0 -125.34 -309.92 -45.93 0 -130.49 309.92zm151.52 -267.42l57.09 151.95 -117.19 0 60.1 -151.95zm208.61 267.42l42.49 0 0 -139.94 54.08 0c51.94,0 62.67,12.88 67.83,57.95 3,23.61 7.29,61.38 14.16,81.99l45.93 0c-12.02,-34.34 -15.03,-60.96 -19.32,-97.44 -4.29,-38.63 -17.6,-51.94 -47.21,-59.66 9.44,-2.58 23.18,-6.87 36.48,-20.18 13.74,-13.74 21.89,-33.05 21.89,-54.94 0,-24.9 -11.16,-48.51 -34.33,-63.1 -22.76,-14.6 -55.37,-14.6 -71.26,-14.6l-110.74 0 0 309.92zm41.63 -273.85l67.82 0c17.18,0 61.81,0 61.81,50.22 0,25.75 -15.02,36.9 -21.03,40.34 -11.59,6.87 -36.05,6.87 -40.78,6.87l-67.82 0 0 -97.43zm262.69 273.85l42.93 0 0 -309.92 -42.93 0 0 309.92zm122.77 -90.57c0,15.03 0.43,39.92 18.03,62.67 24.47,31.33 72.54,35.2 96.15,35.2 79.41,0 122.33,-41.64 122.33,-96.58 0,-12.88 -2.15,-42.92 -30.9,-61.81 -18.03,-12.02 -26.19,-13.74 -100.01,-32.62 -37.77,-9.02 -55.8,-18.46 -55.8,-45.93 0,-30.9 25.76,-50.22 68.68,-50.22 30.47,0 63.1,8.59 65.24,47.22l44.64 0c-0.85,-12.88 -1.71,-33.91 -18.89,-52.8 -24.9,-27.04 -66.53,-30.47 -87.13,-30.47 -58.37,0 -118.04,27.47 -118.04,90.56 0,20.61 6.87,43.79 32.19,60.96 15.88,10.73 36.91,15.88 84.13,27.47 43.36,10.74 71.26,17.61 71.26,52.37 0,15.46 -8.16,55.38 -72.54,55.38 -71.26,0 -73.84,-39.92 -74.7,-61.39l-44.63 0z"/>
  <polygon class="fil1" points="2534.39,1371.6 2760.6,1371.6 2760.6,1310.65 2621.53,1310.65 2621.53,1061.69 2534.39,1061.69 "/>
  <path class="fil3" d="M2810.39 1218.78c0,84.99 34.34,160.11 139.94,160.11 110.31,0 143.36,-82.85 143.36,-165.26 0,-105.16 -54.08,-160.1 -139.94,-160.1 -28.75,0 -71.25,6.87 -103.44,41.63 -33.91,36.48 -39.92,88.42 -39.92,123.62zm45.07 -2.57c0,-63.53 20.18,-126.63 98.72,-126.63 70.83,0 94,53.23 94,123.63 0,21.03 -2.57,69.96 -27.9,100.87 -18.03,21.46 -43.35,28.32 -68.68,28.32 -24.48,0 -51.08,-6.44 -68.68,-28.32 -21.47,-26.63 -27.48,-63.96 -27.48,-97.87zm318.49 155.38l87.13 0c45.5,0 83.71,0 114.18,-25.33 23.62,-18.89 51.51,-60.09 51.51,-127.06 0,-42.49 -10.73,-84.98 -38.2,-117.18 -34.34,-40.34 -83.28,-40.34 -124.91,-40.34l-89.71 0 0 309.91zm42.92 -274.28l51.51 0c37.77,0 62.67,5.15 82.42,27.05 29.18,32.18 30.04,84.98 30.04,96.57 0,18.03 -1.29,68.68 -40.77,98.3 -20.61,15.45 -51.51,17.17 -81.13,17.17l-42.07 0 0 -239.09zm283.3 274.28l42.49 0 0 -139.94 54.09 0c51.93,0 62.67,12.88 67.82,57.95 3,23.61 7.3,61.38 14.17,81.99l45.92 0c-12.02,-34.33 -15.02,-60.95 -19.32,-97.43 -4.29,-38.63 -17.6,-51.94 -47.21,-59.67 9.44,-2.57 23.18,-6.87 36.48,-20.18 13.74,-13.73 21.9,-33.04 21.9,-54.94 0,-24.9 -11.17,-48.5 -34.34,-63.1 -22.75,-14.59 -55.37,-14.59 -71.25,-14.59l-110.75 0 0 309.91zm41.63 -273.85l67.82 0c17.18,0 61.82,0 61.82,50.22 0,25.76 -15.03,36.91 -21.04,40.34 -11.59,6.87 -36.05,6.87 -40.78,6.87l-67.82 0 0 -97.43zm250.26 121.04c0,84.99 34.33,160.11 139.94,160.11 110.31,0 143.36,-82.85 143.36,-165.26 0,-105.16 -54.09,-160.1 -139.94,-160.1 -28.75,0 -71.26,6.87 -103.45,41.63 -33.9,36.48 -39.91,88.42 -39.91,123.62zm45.06 -2.57c0,-63.53 20.18,-126.63 98.73,-126.63 70.83,0 94,53.23 94,123.63 0,21.03 -2.58,69.96 -27.91,100.87 -18.03,21.46 -43.35,28.32 -68.68,28.32 -24.47,0 -51.08,-6.44 -68.68,-28.32 -21.46,-26.63 -27.48,-63.96 -27.48,-97.87zm321.5 155.38l39.06 0 0 -263.12 157.53 263.12 54.94 0 0 -309.91 -39.48 0 0 256.25 -152.38 -256.25 -59.67 0 0 309.91z"/>
  <path class="fil1" d="M2536.53 1576.78l-0.43 176.42c0,50.65 0.43,141.64 146.8,141.64 39.06,0 94.43,-7.3 124.49,-44.21 19.31,-22.75 24.03,-60.09 24.03,-94.43l0 -179.42 -83.7 0 0 181.14c0,30.9 -7.3,75.12 -61.81,75.12 -21.04,0 -41.21,-8.16 -52.8,-25.33 -8.59,-12.88 -9.87,-30.04 -9.87,-46.79l0 -184.14 -86.71 0z"/>
  <path class="fil3" d="M2921.14 1886.7l39.06 0 0 -263.13 157.53 263.13 54.95 0 0 -309.92 -39.49 0 0 256.25 -152.38 -256.25 -59.67 0 0 309.92zm348.12 0l42.92 0 0 -309.92 -42.92 0 0 309.92zm376.44 -309.92l-43.35 0 -92.72 264.84 -87.99 -264.84 -47.64 0 110.31 309.92 47.22 0 114.18 -309.92zm58.38 309.92l197.88 0 0 -37.77 -154.95 0 0 -103.02 144.22 0 0 -36.05 -144.22 0 0 -96.58 151.52 0 0 -36.48 -194.45 0 0 309.92zm283.72 0l42.49 0 0 -139.94 54.08 0c51.94,0 62.67,12.88 67.83,57.95 3,23.61 7.29,61.38 14.17,81.99l45.92 0c-12.02,-34.34 -15.03,-60.96 -19.32,-97.44 -4.29,-38.63 -17.6,-51.94 -47.21,-59.66 9.44,-2.58 23.18,-6.87 36.48,-20.18 13.74,-13.74 21.9,-33.05 21.9,-54.94 0,-24.91 -11.17,-48.51 -34.34,-63.1 -22.76,-14.6 -55.37,-14.6 -71.26,-14.6l-110.74 0 0 309.92zm41.63 -273.86l67.82 0c17.18,0 61.82,0 61.82,50.22 0,25.76 -15.03,36.91 -21.04,40.35 -11.59,6.87 -36.05,6.87 -40.78,6.87l-67.82 0 0 -97.44zm248.97 183.29c0,15.03 0.43,39.92 18.03,62.67 24.47,31.33 72.54,35.2 96.15,35.2 79.41,0 122.33,-41.64 122.33,-96.58 0,-12.88 -2.15,-42.92 -30.9,-61.82 -18.03,-12.02 -26.19,-13.73 -100.01,-32.61 -37.77,-9.02 -55.8,-18.46 -55.8,-45.93 0,-30.9 25.76,-50.22 68.68,-50.22 30.47,0 63.1,8.59 65.25,47.22l44.64 0c-0.86,-12.88 -1.72,-33.91 -18.9,-52.8 -24.9,-27.05 -66.53,-30.47 -87.13,-30.47 -58.37,0 -118.04,27.47 -118.04,90.56 0,20.61 6.87,43.78 32.19,60.96 15.89,10.73 36.91,15.88 84.14,27.47 43.35,10.74 71.25,17.61 71.25,52.37 0,15.46 -8.15,55.37 -72.54,55.37 -71.26,0 -73.84,-39.91 -74.69,-61.38l-44.64 0zm317.21 90.57l42.92 0 0 -309.92 -42.92 0 0 309.92zm254.11 0l0 -273.43 103.87 0 0 -36.48 -250.25 0 0 36.48 103.88 0 0 273.43 42.49 0zm95.71 0l44.21 0 33.48 -80.71 143.79 0 33.48 80.71 46.78 0 -125.34 -309.92 -45.93 0 -130.49 309.92zm151.52 -267.42l57.09 151.95 -117.19 0 60.1 -151.95zm-61.38 -74.69l39.48 0 0 -43.78 -39.48 0 0 43.78zm81.13 0l39.92 0 0 -43.78 -39.92 0 0 43.78zm275.14 342.11l0 -273.43 103.88 0 0 -36.48 -250.25 0 0 36.48 103.87 0 0 273.43 42.49 0z"/>
  <path class="fil1" d="M2523.65 2303.04c0.43,13.31 0.86,43.79 23.62,68.69 28.32,31.75 80.27,36.91 112.46,36.91 77.7,0 136.93,-30.9 136.93,-100.01 0,-65.68 -48.93,-78.56 -90.13,-89.28l-57.95 -15.03c-12.45,-3.43 -31.33,-9.01 -31.33,-31.76 0,-18.46 15.88,-32.61 40.77,-32.61 41.21,0 40.78,33.47 40.78,42.92l87.13 0c-0.43,-33.05 -5.58,-98.73 -126.63,-98.73 -92.71,0 -130.49,46.79 -130.49,97.01 0,64.82 55.37,79.41 76.84,84.98l75.98 19.75c20.6,5.58 26.61,15.46 26.61,30.04 0,35.2 -38.63,35.2 -45.93,35.2 -51.07,0 -51.93,-35.63 -52.36,-48.08l-86.28 0z"/>
  <path class="fil3" d="M2836.59 2401.78l44.21 0 33.48 -80.7 143.79 0 33.48 80.7 46.78 0 -125.34 -309.92 -45.93 0 -130.49 309.92zm151.52 -267.42l57.09 151.95 -117.19 0 60.1 -151.95zm211.61 267.42l186.73 0 0 -38.2 -144.23 0 0 -271.71 -42.49 0 0 309.92zm230.93 0l233.08 0 0 -37.77 -183.71 0 180.71 -229.65 0 -42.49 -225.35 0 0 37.77 174.27 0 -179 229.22 0 42.92zm305.19 0l112.89 0c24.48,0 48.51,0 69.97,-14.17 10.31,-6.87 37.34,-28.32 37.34,-70.4 0,-59.23 -43.78,-72.11 -61.81,-77.27 15.03,-5.58 52.37,-18.88 52.37,-69.96 0,-24.47 -8.59,-42.49 -21.9,-55.37 -19.32,-18.9 -40.34,-22.76 -78.12,-22.76l-110.75 0 0 309.92zm41.64 -274.71l61.81 0c23.61,0 62.67,0 62.67,46.78 0,48.93 -49.79,48.93 -64.39,48.93l-60.09 0 0 -95.71zm0 132.63l75.12 0c37.77,0 59.23,22.76 59.23,53.66 0,35.62 -27.04,53.65 -60.95,53.65l-73.4 0 0 -107.31zm260.97 -167.83l0 188.87c0,46.36 8.59,64.39 18.04,78.13 28.75,41.2 80.27,49.36 109.45,49.36 22.32,0 69.53,-4.73 100.01,-42.93 24.9,-30.89 25.33,-65.67 25.33,-82.41l0 -191.02 -41.63 0 0 190.16c0,22.32 0,87.99 -83.71,87.99 -21.47,0 -51.51,-4.73 -70.82,-30.47 -6.45,-9.02 -13.75,-22.76 -13.75,-55.8l0 -191.88 -42.92 0zm348.11 309.92l42.5 0 0 -139.94 54.08 0c51.94,0 62.67,12.88 67.82,57.95 3.01,23.61 7.3,61.38 14.17,81.99l45.93 0c-12.03,-34.34 -15.03,-60.96 -19.32,-97.44 -4.29,-38.63 -17.6,-51.94 -47.22,-59.66 9.45,-2.58 23.19,-6.87 36.49,-20.18 13.73,-13.74 21.89,-33.05 21.89,-54.94 0,-24.9 -11.16,-48.51 -34.34,-63.1 -22.75,-14.6 -55.37,-14.6 -71.25,-14.6l-110.75 0 0 309.92zm41.64 -273.86l67.82 0c17.17,0 61.81,0 61.81,50.23 0,25.75 -15.02,36.9 -21.03,40.34 -11.59,6.87 -36.06,6.87 -40.78,6.87l-67.82 0 0 -97.44zm519.38 41.21c-0.85,-12.02 -2.14,-30.05 -20.6,-49.36 -29.62,-30.04 -66.97,-33.05 -91.43,-33.05 -15.45,0 -55.8,1.29 -86.27,21.89 -58.81,39.49 -66.54,112.47 -66.54,143.36 0,43.79 12.88,87.14 43.36,118.05 21.89,22.32 55.37,38.63 112.46,38.63 52.79,0 92.28,-12.88 110.31,-18.89l0 -152.81 -113.75 0 0 35.62 70.83 0 0 91.86c-9.87,3 -32.19,9.87 -67.39,9.87 -30.9,0 -62.24,-7.3 -82.42,-30.47 -22.76,-27.05 -28.33,-71.26 -28.33,-97.43 0,-29.19 6.01,-69.55 33.05,-99.59 16.32,-18.46 40.78,-26.19 69.97,-26.19 42.06,0 65.25,19.75 69.97,48.51l46.78 0z"/>
  <path class="fil1" d="M1977.63 1747.99l-0.08 -0.05c0.08,-5.81 -0.51,-14.13 -1.39,-21.8 -1.32,-0.79 -2.95,-1.21 -4.35,-1.9 -8.69,7.37 -15.64,15.74 -18.98,26.88 -4.26,14.19 -2.3,31.39 -2.3,31.39 0,0 -12.73,-12.94 -8.36,-38.21 1.85,-10.63 5.7,-19.2 10.04,-26.25 -12.1,-2.08 -24.63,-1.96 -34.54,0.45 -1.39,0.35 -2.66,1.01 -4.03,1.42 -5.04,10.72 -5.01,20.96 -1.65,29.82 3.16,8.38 10.8,18.92 10.8,18.92 0,0 -17.79,-4.26 -24.82,-20.55 -2.88,-6.68 -3.59,-13.31 -3.39,-19.39 -10.06,6.5 -18.45,15.15 -23.11,26.21 -13.2,31.34 -4.25,57.11 2.65,70.34 4.58,6.63 13.43,16.79 27.88,23.33 16.15,7.31 29.81,8.1 29.81,8.1 0,0 -8.91,5.45 -29.89,4.1 -11.24,-0.72 -20.78,-6.13 -27.1,-10.78 -9.44,19.93 -25.94,24.88 -39.98,26.18 -39.64,3.67 -86.86,-27.89 -127.89,-61.03 0.03,-0.06 0.04,-0.15 0.06,-0.22 -25.56,-19.72 -48.32,-41.42 -62.43,-56.52 -12.49,-13.4 -26.62,-33.72 -26.62,-33.72l28.06 -32.3c0,0 6.6,34.61 41.88,72.88 9.94,10.78 18.04,19.18 24.85,25.33 5.09,-29.11 5.86,-60.66 6.01,-60.74 18.46,-11.45 66.74,-40.22 102.68,-56.3 54.15,-24.25 104.89,-27.19 142.58,-24.83 -6.06,-24.57 -10.94,-49.17 -31.62,-99.26 -13.81,-33.45 -33.89,-66.9 -48.8,-89.05l0.03 0c0,0 -0.24,-0.33 -0.44,-0.64 -0.87,-1.28 -1.79,-2.68 -2.63,-3.89 -0.03,0 -0.09,0 -0.12,0 -0.64,-0.91 -1.2,-1.71 -1.42,-1.98 -5.07,-6.86 -31.18,-40.8 -46.9,-58.41 -4.49,-5.05 -9.91,-10.76 -15.38,-16.37 -0.01,0 -0.11,-0.12 -0.11,-0.12l-0.04 -0.01c-12.08,-12.42 -24.31,-24.2 -26.81,-26.61 -2.26,-2.24 -6.68,-6.25 -15.57,-13.28 -1.32,0.36 -2.57,1.14 -3.89,1.6 -0.9,10.36 0.05,20.34 4.8,29.95 6.57,13.28 19.74,24.54 19.74,24.54 0,0 -18.14,-0.78 -32.17,-22.27 -5.16,-7.9 -8.17,-15.72 -9.95,-23.01 -10.2,7.19 -19.08,16.36 -24.35,25.46 -0.61,1.03 -0.9,2.16 -1.45,3.22 3.91,8.94 10,15.27 17.39,18.91 8.02,3.97 20.8,6.47 20.8,6.47 0,0 -15.92,9.02 -32.15,1.9 -5,-2.19 -9.07,-5.22 -12.53,-8.5 -2.43,12.17 -2.02,24.74 2.18,36.56 7.49,21.06 24.55,36.82 47.35,44.96 8.04,1.54 20.48,2.43 34.46,-2.29 16.79,-5.67 27.34,-14.41 27.34,-14.41 0,0 -2.81,10.08 -19.08,23.4 -6.27,5.12 -13.55,7.86 -20.07,9.36 9.7,22.09 1.97,38.65 -7.98,49.46 -21.46,23.22 -64.53,38.2 -115.58,40.4 -11.96,-17.78 -22.8,-30.11 -28.04,-35.66 -0.39,-0.42 -2.72,-2.9 -5.76,-5.97 -2.52,-3.26 -16.45,-15.52 -31.14,-28.13 -4.49,6.43 -11.58,15.63 -21.32,25.38 -18.2,18.2 -50.4,27.86 -50.4,27.86 0,0 -37.27,-6.25 -67.71,-28.52 -12.55,-9.2 -28.16,-24.53 -34.32,-36.64 -20.56,-28.81 -11.06,-72.49 -11.06,-72.49 0,0 -10.05,-1.07 -22.27,-6.83 -17.79,-8.4 -33.1,-25.66 -38.15,-41.09 -5.77,-17.65 -5.42,-59.52 40.9,-74.95 21.13,-5.52 30.66,4.06 30.66,4.06 0,0 -32.6,1.42 -44.92,22.56 -12.31,21.14 -6.11,40.06 6.13,50.23 14.71,13.13 50.61,18.02 50.61,18.02 0,0 -11.18,39.54 0.18,63.5 6.16,13.03 27.69,36.71 51.5,47.73 15.11,7.03 28.41,12.64 42.31,15.28 22.11,-10.26 39.89,-35.94 40.69,-37.11 -0.05,-0.06 -0.15,-0.13 -0.22,-0.18 0.54,-0.68 1.12,-1.27 1.64,-1.96 12.79,-16.83 19.33,-38.67 19.3,-38.69l-0.18 0.08c0.07,-0.25 0.12,-0.41 0.12,-0.41 0,0 -43.19,-23.59 -27.44,-53.11 11.03,-20.71 39.76,-8.37 52.62,-0.88l15.1 8.78 39.95 -81.94c0,0 -55.11,-24.08 -82.11,-34.51l16.16 -44.9 -18.54 -6.2c-93.1,-31.11 -178.76,-36 -263.11,-21.94 -79.98,13.34 -146.98,57.68 -183.85,121.64 -37.29,64.73 -42.03,154.16 -12.04,221.97 21.44,48.48 50.78,78.95 56.17,142.21 4.13,48.44 -18.81,87.56 -35.42,122.8 11.18,1.06 24.35,3.16 24.35,3.16 17.19,2.22 50.22,3.73 78.1,4.69 19.76,-19.22 46.31,-53.16 52.73,-101.17 5.56,-52.22 -13.42,-94.38 -29.12,-122.4 -15.03,-26.8 -43.86,-66.64 -59.28,-96.99 -26.65,-52.33 -32.09,-101.5 -18.26,-146.6 8.55,-27.87 26.31,-51.12 48.02,-68.31 19.14,-14.09 29.24,-15.24 46.81,-20.6 -30.47,18.09 -54.87,45.02 -65.73,80.39 -13.84,45.1 -9.11,94.26 17.54,146.6 15.43,30.36 46.39,67.37 61.42,94.14 15.71,28.04 36.14,70.17 33.38,118.85 -1.18,32.52 -16.3,74.5 -35.25,103.27 -4.6,6.95 -7.45,11.02 -9.65,14.01 0.18,0 0.46,0.01 0.63,0.01 -15.13,20.68 -53.72,59.29 -105.18,78.57 -54.65,20.47 -115.31,22 -140.79,4.44 -1.28,-0.9 -2.48,-1.82 -3.6,-2.75 33.16,-3.82 67.39,-22.41 79.34,-60.06 13.36,-42.12 -2.27,-70.07 -28.12,-93.93 39.09,-52.03 41.67,-118.26 5.56,-159.3 -4.71,-5.37 -9.86,-10.08 -15.28,-14.12 12.22,-55.41 3.57,-126.03 -29.4,-150.13 -17.9,-13.06 -38.18,-17.12 -58.66,-11.79 -51.25,13.4 -84.39,74.63 -99.85,108.63 -15.5,33.96 -28.39,68.83 -42.76,136.29 -12.1,56.89 -14.13,167.62 9.76,245.7 3.61,11.71 11.23,10.92 11.56,4.49 1.3,-27.81 5.26,-50.46 10.22,-68.71 5.8,-21.43 13,-36.76 18.91,-47.09 18.76,-32.8 36.35,-102.98 13.47,-160.85 -8.49,-21.5 -4.88,-54.77 8.03,-90.27 18.98,-40.93 50.77,-85.05 79.95,-92.68 9.86,-2.59 18.69,-0.71 27.76,5.91 12.74,9.34 26.48,54.71 16.94,105 -6.65,-1.36 -13.44,-1.86 -20.24,-1.46 -23.18,1.37 -44.14,13.34 -57.56,32.8 -20.63,30.03 -20.45,75.65 12.79,115.89 -28.84,41.02 -50.67,79.1 -44.09,126.55 4.35,31.31 25.79,55.19 56.71,65.01 4.77,15.05 14.21,27.74 27.78,37.1 18,12.39 44.41,18.57 74.85,18.57 16.99,0 35.21,-1.99 53.92,-5.86 -4.8,22.26 -23.14,44.9 -37.24,53.37 -32.18,19.32 -76.9,15.95 -118.42,-23.8 0,0 -8.83,-8.69 -14.67,-14.08 -24.03,26.26 -44.89,75 -44.9,109.71l20.3 29.1c87.16,108.9 179.17,159.05 255.98,186.56 0,-0.02 0.01,-0.03 0.03,-0.05 1.68,0.61 33.5,12.1 60.8,19.35 32.64,8.65 66.58,10.41 66.58,10.41l0.15 -0.41c1.18,-1.18 2.07,-2.77 3.15,-4.07 -7.6,-11.98 -16.5,-21.7 -29.65,-26.66 -13.86,-5.25 -31.15,-4.49 -31.15,-4.49 0,0 13.79,-11.8 38.69,-5.67 15.07,3.7 25.84,11.15 33.36,18.24 4.46,-10.56 7.07,-21.82 7.1,-31.47 0.01,-0.93 -0.23,-1.79 -0.28,-2.7 -1.33,-1.29 -2.66,-2.62 -4.26,-4.03 -13.53,-11.99 -27.36,-14.1 -39.25,-10.53 -8.57,2.57 -19.61,9.45 -19.61,9.45 0,0 5.48,-17.44 22.23,-23.32 13.67,-4.78 26.76,-1.54 35.02,1.77 -4.12,-9.27 -10.22,-17.57 -18.03,-24.24 -13.33,-11.43 -36.4,-21.1 -55.38,-18.95 -18.99,2.14 -26.92,5.46 -37.84,12.48 -11.08,7.13 -17.41,13.2 -24.3,25.94 -8.42,15.61 -10.16,29.19 -10.16,29.19 0,0 -4.83,-9.28 -2.01,-30.11 2.26,-16.79 14.81,-29.11 18.77,-32.65 -21.65,-15.82 -43.71,-48.43 -45.14,-70.45 44.67,11.82 89.43,11.16 125.67,-1.97 3.71,-1.75 7.78,-3.76 11.33,-6.22 28.45,-19.63 36.37,-34.58 45.48,-54.77 14.91,-33.05 22.12,-85.93 10.3,-112.53 -11.37,-25.56 -54.68,-52.54 -54.68,-52.54l31.24 -7.81c0,0 17.08,10.3 28.76,22.73 11.67,12.41 24.69,24.84 24.69,24.84 0,0 21.1,26.64 43.81,33.01 21.81,6.14 28.79,5.09 46.86,3.91 6.18,-0.41 14.1,-1.82 23.25,-3.77 0,-0.04 -0.01,-0.06 -0.03,-0.08 20.25,-6.17 35.44,-10.99 53.1,-20.15 -18.74,-9.52 -35.75,-23.78 -49.68,-39.54 -26.64,-30.18 -35.85,-84.5 -35.85,-84.5l31.94 -14.11c0,0 -0.36,43.57 22.01,77.34 11.9,17.98 25.49,32.88 50.77,48.24 17.13,10.4 38.26,17.99 52.21,22.35 11.17,3.13 22.25,5.81 30.4,7.34 26.87,5.04 44.55,6.52 85.57,7.43 10.74,0.22 31.36,2.08 44.08,7.05 13.31,5.16 28.78,14.6 41.49,26.88 11.61,11.2 28.8,36.78 33.84,54.62 8.74,-11.45 29.33,-45.54 51.48,-98.26 15.41,-36.7 28.84,-105.25 28.54,-105.62 2.55,-11.24 6.38,-43.79 6.89,-61.5 0.52,-18.32 1.46,-62.05 1.46,-62.05zm-957.09 -4.04c0.98,0.76 1.99,1.52 3.02,2.25 5.26,3.84 10.45,7.54 15.51,11.13 4.49,3.21 8.72,6.24 12.69,9.18 -19.13,27.36 -41.69,65.99 -47.53,102.35 -8.7,-5.58 -16.33,-14.55 -18.33,-28.95 -4.57,-32.9 11.33,-62.25 34.64,-95.95zm27.71 -142.52c-0.63,2.02 -1.25,4.03 -1.86,6 -10.1,32.61 -17.53,53.96 -31.77,76.12 -16.06,-24.3 -16.08,-48.85 -4.92,-65.09 7.21,-10.48 17.93,-16.66 30.17,-17.39 0.81,-0.06 1.61,-0.08 2.42,-0.08 1.98,0 3.98,0.15 5.96,0.44zm25.62 135.75c-4.43,-3.23 -8.98,-6.46 -13.5,-9.69 -4.97,-3.54 -10.04,-7.16 -15.19,-10.93 -1.14,-0.83 -2.24,-1.64 -3.34,-2.47 21.23,-30.52 29.86,-57.48 39.41,-88.22 23.56,27.82 20.36,73.73 -7.39,111.31zm-34.73 142.28c3,-26.69 20.63,-60.49 41.49,-90.69 17.24,16.71 22.87,31.81 15.63,54.65 -10.57,33.31 -30.16,35.51 -57.12,36.04zm437.47 -564.18c0,0 34.75,3.05 55.83,12.74 -30.93,9.29 -44.2,25.93 -61.75,28.37 -2.6,-13.27 5.92,-41.11 5.92,-41.11zm234.44 174.57c-17.33,8.56 -36.52,5.51 -43.53,-2.33 -7.02,-7.85 -8.55,-12.56 -12.62,-20.78 -4.34,-8.24 -8.83,-17.18 -14.51,-25.77 -5.81,-8.47 -12.88,-16.78 -21.78,-22.53 -8.8,-5.86 -21.32,-10.42 -28.31,-10.23 -6.99,0.19 -4.12,2.83 -1.24,4.21 2.89,1.36 15.22,9.77 20.45,16.28 5.32,6.49 8.76,14.08 11.35,22.18 5.75,16.27 6.37,34.33 17.39,55.91 1.42,2.71 2.98,5.4 5.14,8.12l3.04 4.04 3.32 3.55c4.4,4.82 9.96,8.97 16.18,12.41 12.53,6.88 29.2,7.42 42.42,1.5 13.46,-5.64 22.8,-16.71 27.44,-27.94 4.63,-11.4 4.9,-26.73 1.42,-34.01 -3.46,-7.27 -12.17,8.3 -26.15,15.39zm-395.26 690.24c77.75,14.15 117.12,67.67 136.6,153.07 134.18,-8.6 230.68,-59.56 296.29,-107.76l0.03 0.14c0,0 33.05,-26.18 55.02,-46.31 7.74,-7.11 15.41,-15.38 21.87,-22.76 0,0.12 0.05,0.27 0.05,0.4 0,0 10.12,-11.11 16.56,-19.05 -0.23,-1.23 -0.87,-2.41 -1.2,-3.62 -12.81,-1.57 -24.98,-0.95 -36.41,5.2 -13.05,7.04 -23.82,20.58 -23.82,20.58 0,0 0.15,-18.14 21.13,-32.93 10.5,-7.4 21.1,-10.98 30.28,-12.57 -6.42,-10.18 -14.64,-19.2 -23.03,-24.87 -1,-0.69 -2.15,-1.06 -3.18,-1.69 -15.11,3.2 -24.66,11.35 -29.29,21.64 -3.68,8.17 -5.73,21.01 -5.73,21.01 0,0 -9.58,-15.58 -3.01,-32.06 3.48,-8.79 9.41,-15.1 15.32,-19.61 -10.6,-2.15 -21.56,-2.02 -32.1,0.91 -24.81,6.92 -50.15,25.52 -55.69,67.02 -0.17,7.27 0.69,16.1 4.26,25.57 6.25,16.59 15.36,26.82 15.36,26.82 0,0 -10.16,-2.44 -24.04,-18.24 -4.77,-5.42 -7.66,-11.76 -9.46,-17.66 -24.21,12.77 -64.78,20.69 -85.72,23.98 -26.15,4.1 -45.14,5.64 -57.71,-1.81 -13.17,-7.81 -17.84,-13.86 -24.23,-26.36 -8.11,-15.88 -4.97,-42.1 -1.45,-52.78 6.64,-19.96 38.24,-49.2 26.61,-88.59 -0.97,-5.17 -1.86,-9.08 -2.76,-12.6 -3.92,1.77 -7.75,3.38 -11.34,4.61 -44.38,15.27 -96.92,-4.25 -96.92,-4.25 0,0 -3.48,43.78 -20.59,70.28 -21.3,33.01 -37.68,46.51 -56.23,60.15 -11.61,8.52 -22.45,13.8 -31.4,17.18 -0.08,8.88 -1.19,18.57 -4.05,26.98z"/>
 </g>
</svg>
